# xmcd
#
# Track frame offsets: 
#        150
#        8692
#        18939
#        28115
#        37127
#        48940
#        60945
#        69770
#        80465
#        89580
#        102163
#
# Disc length: 1488 seconds
#
# Revision: 0
# Processed by: cddbd v1.5.2PL0 Copyright (c) Steve Scherf et al.
# Submitted via: ExactAudioCopy v1.0b3
#
DISCID=7b05ce0b
DTITLE=Roy Wiggins - Honolulu Nights
DYEAR=2011
DGENRE=Instrumental
TTITLE0=Waikiki Wiggle
TTITLE1=South Sea Melody
TTITLE2=Honolulu Nights
TTITLE3=Steel Guitar Hula
TTITLE4=Blue Hawaii
TTITLE5=Hawaiian Sunset
TTITLE6=My Tane
TTITLE7=The Hilo Hattie Shake
TTITLE8=Driftwood
TTITLE9=Song Of The Islands
TTITLE10='Til We Meet Again (Aloha)
EXTD=
EXTT0=
EXTT1=
EXTT2=
EXTT3=
EXTT4=
EXTT5=
EXTT6=
EXTT7=
EXTT8=
EXTT9=
EXTT10=
PLAYORDER=
